Patient4_TMGait_0pt7_01_left_41_EMG.mot
version=1
nRows=13
nColumns=33
inDegrees=no
endheader
time	1LAddLong	2LGlutMax	3LGlutMed	4LIliopsoas	5LSemiMemb	6LBicFemLong	7LRecFem	8LVastMed	9LVastLat	10LGasMed	11LTibAnt	12lTibPost	13LPeroneusLong	14LSol	15LExtDigLong	16LFlexDigLong	17RAddLong	18RGlutMax	19RGlutMed	20RIliopsoas	21RSemiMemb	22RBicFemLong	23RRecFem	24RVastMed	25RVastLat	26RGasMed	27RTibAnt	28RTibPost	29RPeroneusLong	30RSol	31RExtDigLong	32RFlexDigLong
47.875	0.003357	0.62057	-0.097351	0.011444	-0.036621	0.22308	0.46799	0.002594	-0.78705	-0.12589	0.015869	-0.00885	0.12665	-0.068207	0.075836	0.022125	0.064392	-0.000458	-0.070953	0.005646	-0.21271	-0.012512	0.59036	0.10254	0.015106	0	0.22766	-0.014648	-0.13992	-0.005798	0.006409	-0.022583
47.876	-0.023804	0.84366	0.14404	-0.007019	-0.094299	0.22293	0.56091	0.045776	-0.72845	-0.38071	-0.07309	-0.0177	0.097504	-0.19379	0.00351	0.017548	0.008545	-0.051422	-0.14542	0.013123	-0.16205	0.046539	0.58685	0.1506	-0.005188	0.006409	0.016785	-0.013733	-0.034637	-0.028992	0.010071	-0.021667
47.877	-0.031586	1.0101	0.04425	0.018005	-0.16098	0.14877	0.551	0.040131	-0.57892	-0.28534	-0.047607	-0.010834	-0.18845	-0.20905	0.006866	0.026855	-0.070343	-0.103	-0.30319	-0.066681	-0.16373	0.12894	0.61127	0.12253	-0.006104	0.005951	-0.26871	-0.0177	-0.043488	-0.027466	0.007019	-0.019531
47.878	-0.016022	1.1429	0.10895	0.005951	-0.088806	0.054169	0.59647	0.010986	-0.43396	-0.21606	-0.064087	-0.006714	0.023346	-0.077209	0.063782	0.028229	-0.028534	-0.1236	-0.38238	-0.10315	-0.10986	0.054932	0.60074	0.18631	-0.02121	0.007782	-0.16129	-0.014343	-0.17654	-0.025024	0.007172	-0.017242
47.879	-0.001373	1.2114	0.075684	0.041962	-0.056152	0.19562	0.63248	0.050049	-0.33096	-0.1294	-0.026398	-0.001831	0.28854	-0.052338	0.081329	0.03418	-0.041809	-0.18951	-0.54688	-0.014801	-0.094604	0.015717	0.58289	0.19012	-0.015869	0.002899	0.008698	-0.014038	-0.25955	-0.045776	0.006104	-0.007324
47.88	0.007019	1.2183	0.060272	0.041962	-0.082092	0.30121	0.70755	0.023956	-0.3714	-0.048218	0.037994	0.017395	0.43564	-0.10437	-0.015106	0.020752	-0.076752	-0.16815	-0.47577	0.028381	-0.072021	-0.062714	0.55679	0.2655	0.02594	0.001221	0.06546	-0.013733	-0.21088	-0.034637	0.006409	-0.017395
47.881	0.014496	1.2418	0.10117	0.024109	-0.10208	0.34103	0.75943	0.024414	-0.47516	-0.034027	0.015106	0.018616	1.1038	-0.023346	0.00946	0.010376	-0.10941	-0.18112	-0.38956	0.069427	-0.17197	-0.16556	0.47302	0.32044	0.012665	0.003967	0.45197	-0.007629	-0.066681	-0.092316	0.004578	-0.019073
47.882	0.034943	1.2514	0.13947	0.032501	-0.12207	0.28656	0.85083	0.011902	-0.41779	-0.053253	0.00351	0.027161	0.68253	-0.088196	0.080872	0.027313	-0.18341	-0.19104	-0.26932	0.059052	-0.16525	-0.12253	0.52597	0.30533	0.040741	0.00885	0.29999	-0.013275	-0.063171	-0.11337	0.004272	-0.017395
47.883	0.028687	1.2526	0.16144	0.035553	-0.083618	0.31265	0.87982	0.007782	-0.32013	0.005341	0.023956	0.02594	-0.4274	-0.24536	0	0.097656	-0.20203	-0.19974	-0.29602	0.062103	-0.12756	-0.036163	0.50537	0.30563	0.025482	0.005341	0.40985	-0.012817	-0.033417	-0.13825	0.003052	-0.022278
47.884	0.016174	1.3562	0.051727	0.016022	-0.065002	0.36529	0.84228	0.006409	-0.32883	0.003815	0.014038	0.03418	-1.0654	-0.27039	-0.022736	0.10513	-0.18448	-0.20081	-0.48477	0.046997	-0.092926	0.023041	0.51117	0.37018	0.017395	0.016479	0.12314	-0.012054	0.19241	-0.18738	0.002899	-0.010681
47.885	-0.001373	1.2527	0.008392	0.052032	-0.13504	0.059204	0.85678	-0.003357	-0.25803	-0.019226	0.007629	0.16159	-0.5864	-0.28198	-0.036163	0.063782	-0.13397	-0.18875	-0.35523	-0.029907	-0.053406	0.11749	0.57754	0.34973	0.009003	0.00946	-0.42328	-0.015106	0.31387	-0.23972	0.00351	-0.014496
47.886	-0.03006	1.2492	0.14816	0.018463	-0.26642	-0.18112	0.90714	0.013885	-0.1738	-0.070038	0.003662	0.11322	0.27237	-0.29205	0.048218	0.058136	-0.10681	-0.14603	-0.28305	-0.076599	-0.054474	0.086517	0.53757	0.29297	-0.010681	0.014954	-0.14206	-0.012512	0.13626	-0.21164	0.002899	-0.015259
47.887	-0.027008	1.2392	0.11505	0.009003	-0.33737	-0.24567	0.87647	0.019684	-0.024109	-0.089264	0.030823	-0.086823	0.021362	-0.33493	0.11139	0.056305	-0.089722	-0.13016	-0.457	-0.010834	-0.099487	0.023804	0.55176	0.30106	-0.005951	0.016174	0.1471	-0.016174	0.008087	-0.079041	0.000305	-0.017853
